<?xml version="1.0" encoding="utf-8" standalone="no"?>
<!DOCTYPE svg PUBLIC "-//W3C//DTD SVG 1.1//EN"
  "http://www.w3.org/Graphics/SVG/1.1/DTD/svg11.dtd">
<svg xmlns:xlink="http://www.w3.org/1999/xlink" width="587.52pt" height="270.72pt" viewBox="0 0 587.52 270.72" xmlns="http://www.w3.org/2000/svg" version="1.1">
 <metadata>
  <rdf:RDF xmlns:dc="http://purl.org/dc/elements/1.1/" xmlns:cc="http://creativecommons.org/ns#" xmlns:rdf="http://www.w3.org/1999/02/22-rdf-syntax-ns#">
   <cc:Work>
    <dc:type rdf:resource="http://purl.org/dc/dcmitype/StillImage"/>
    <dc:date>2026-03-12T14:31:15.407879</dc:date>
    <dc:format>image/svg+xml</dc:format>
    <dc:creator>
     <cc:Agent>
      <dc:title>Matplotlib v3.10.6, https://matplotlib.org/</dc:title>
     </cc:Agent>
    </dc:creator>
   </cc:Work>
  </rdf:RDF>
 </metadata>
 <defs>
  <style type="text/css">*{stroke-linejoin: round; stroke-linecap: butt}</style>
 </defs>
 <g id="figure_1">
  <g id="patch_1">
   <path d="M 0 270.72 
L 587.52 270.72 
L 587.52 0 
L 0 0 
z
" style="fill: #ffffff"/>
  </g>
  <g id="axes_1">
   <g id="patch_2">
    <path d="M 51.84 214.344 
L 275.288276 214.344 
L 275.288276 37.824 
L 51.84 37.824 
z
" style="fill: #ffffff"/>
   </g>
   <g id="matplotlib.axis_1">
    <g id="xtick_1">
     <g id="line2d_1">
      <path d="M 61.99674 214.344 
L 61.99674 37.824 
" clip-path="url(#pe236f5b875)" style="fill: none; stroke: #b0b0b0; stroke-opacity: 0.2; stroke-width: 0.8; stroke-linecap: square"/>
     </g>
     <g id="line2d_2">
      <defs>
       <path id="m8277b1fb05" d="M 0 0 
L 0 3 
" style="stroke: #000000; stroke-width: 0.8"/>
      </defs>
      <g>
       <use xlink:href="#m8277b1fb05" x="61.99674" y="214.344" style="stroke: #000000; stroke-width: 0.8"/>
      </g>
     </g>
     <g id="text_1">
      <!-- 0 -->
      <g transform="translate(58.81549 230.942437) scale(0.1 -0.1)">
       <defs>
        <path id="DejaVuSans-30" d="M 2034 4250 
Q 1547 4250 1301 3770 
Q 1056 3291 1056 2328 
Q 1056 1369 1301 889 
Q 1547 409 2034 409 
Q 2525 409 2770 889 
Q 3016 1369 3016 2328 
Q 3016 3291 2770 3770 
Q 2525 4250 2034 4250 
z
M 2034 4750 
Q 2819 4750 3233 4129 
Q 3647 3509 3647 2328 
Q 3647 1150 3233 529 
Q 2819 -91 2034 -91 
Q 1250 -91 836 529 
Q 422 1150 422 2328 
Q 422 3509 836 4129 
Q 1250 4750 2034 4750 
z
" transform="scale(0.015625)"/>
       </defs>
       <use xlink:href="#DejaVuSans-30"/>
      </g>
     </g>
    </g>
    <g id="xtick_2">
     <g id="line2d_3">
      <path d="M 100.469239 214.344 
L 100.469239 37.824 
" clip-path="url(#pe236f5b875)" style="fill: none; stroke: #b0b0b0; stroke-opacity: 0.2; stroke-width: 0.8; stroke-linecap: square"/>
     </g>
     <g id="line2d_4">
      <g>
       <use xlink:href="#m8277b1fb05" x="100.469239" y="214.344" style="stroke: #000000; stroke-width: 0.8"/>
      </g>
     </g>
     <g id="text_2">
      <!-- 4 -->
      <g transform="translate(97.287989 230.942437) scale(0.1 -0.1)">
       <defs>
        <path id="DejaVuSans-34" d="M 2419 4116 
L 825 1625 
L 2419 1625 
L 2419 4116 
z
M 2253 4666 
L 3047 4666 
L 3047 1625 
L 3713 1625 
L 3713 1100 
L 3047 1100 
L 3047 0 
L 2419 0 
L 2419 1100 
L 313 1100 
L 313 1709 
L 2253 4666 
z
" transform="scale(0.015625)"/>
       </defs>
       <use xlink:href="#DejaVuSans-34"/>
      </g>
     </g>
    </g>
    <g id="xtick_3">
     <g id="line2d_5">
      <path d="M 138.941738 214.344 
L 138.941738 37.824 
" clip-path="url(#pe236f5b875)" style="fill: none; stroke: #b0b0b0; stroke-opacity: 0.2; stroke-width: 0.8; stroke-linecap: square"/>
     </g>
     <g id="line2d_6">
      <g>
       <use xlink:href="#m8277b1fb05" x="138.941738" y="214.344" style="stroke: #000000; stroke-width: 0.8"/>
      </g>
     </g>
     <g id="text_3">
      <!-- 8 -->
      <g transform="translate(135.760488 230.942437) scale(0.1 -0.1)">
       <defs>
        <path id="DejaVuSans-38" d="M 2034 2216 
Q 1584 2216 1326 1975 
Q 1069 1734 1069 1313 
Q 1069 891 1326 650 
Q 1584 409 2034 409 
Q 2484 409 2743 651 
Q 3003 894 3003 1313 
Q 3003 1734 2745 1975 
Q 2488 2216 2034 2216 
z
M 1403 2484 
Q 997 2584 770 2862 
Q 544 3141 544 3541 
Q 544 4100 942 4425 
Q 1341 4750 2034 4750 
Q 2731 4750 3128 4425 
Q 3525 4100 3525 3541 
Q 3525 3141 3298 2862 
Q 3072 2584 2669 2484 
Q 3125 2378 3379 2068 
Q 3634 1759 3634 1313 
Q 3634 634 3220 271 
Q 2806 -91 2034 -91 
Q 1263 -91 848 271 
Q 434 634 434 1313 
Q 434 1759 690 2068 
Q 947 2378 1403 2484 
z
M 1172 3481 
Q 1172 3119 1398 2916 
Q 1625 2713 2034 2713 
Q 2441 2713 2670 2916 
Q 2900 3119 2900 3481 
Q 2900 3844 2670 4047 
Q 2441 4250 2034 4250 
Q 1625 4250 1398 4047 
Q 1172 3844 1172 3481 
z
" transform="scale(0.015625)"/>
       </defs>
       <use xlink:href="#DejaVuSans-38"/>
      </g>
     </g>
    </g>
    <g id="xtick_4">
     <g id="line2d_7">
      <path d="M 177.414238 214.344 
L 177.414238 37.824 
" clip-path="url(#pe236f5b875)" style="fill: none; stroke: #b0b0b0; stroke-opacity: 0.2; stroke-width: 0.8; stroke-linecap: square"/>
     </g>
     <g id="line2d_8">
      <g>
       <use xlink:href="#m8277b1fb05" x="177.414238" y="214.344" style="stroke: #000000; stroke-width: 0.8"/>
      </g>
     </g>
     <g id="text_4">
      <!-- 12 -->
      <g transform="translate(171.051738 230.942437) scale(0.1 -0.1)">
       <defs>
        <path id="DejaVuSans-31" d="M 794 531 
L 1825 531 
L 1825 4091 
L 703 3866 
L 703 4441 
L 1819 4666 
L 2450 4666 
L 2450 531 
L 3481 531 
L 3481 0 
L 794 0 
L 794 531 
z
" transform="scale(0.015625)"/>
        <path id="DejaVuSans-32" d="M 1228 531 
L 3431 531 
L 3431 0 
L 469 0 
L 469 531 
Q 828 903 1448 1529 
Q 2069 2156 2228 2338 
Q 2531 2678 2651 2914 
Q 2772 3150 2772 3378 
Q 2772 3750 2511 3984 
Q 2250 4219 1831 4219 
Q 1534 4219 1204 4116 
Q 875 4013 500 3803 
L 500 4441 
Q 881 4594 1212 4672 
Q 1544 4750 1819 4750 
Q 2544 4750 2975 4387 
Q 3406 4025 3406 3419 
Q 3406 3131 3298 2873 
Q 3191 2616 2906 2266 
Q 2828 2175 2409 1742 
Q 1991 1309 1228 531 
z
" transform="scale(0.015625)"/>
       </defs>
       <use xlink:href="#DejaVuSans-31"/>
       <use xlink:href="#DejaVuSans-32" transform="translate(63.623047 0)"/>
      </g>
     </g>
    </g>
    <g id="xtick_5">
     <g id="line2d_9">
      <path d="M 215.886737 214.344 
L 215.886737 37.824 
" clip-path="url(#pe236f5b875)" style="fill: none; stroke: #b0b0b0; stroke-opacity: 0.2; stroke-width: 0.8; stroke-linecap: square"/>
     </g>
     <g id="line2d_10">
      <g>
       <use xlink:href="#m8277b1fb05" x="215.886737" y="214.344" style="stroke: #000000; stroke-width: 0.8"/>
      </g>
     </g>
     <g id="text_5">
      <!-- 16 -->
      <g transform="translate(209.524237 230.942437) scale(0.1 -0.1)">
       <defs>
        <path id="DejaVuSans-36" d="M 2113 2584 
Q 1688 2584 1439 2293 
Q 1191 2003 1191 1497 
Q 1191 994 1439 701 
Q 1688 409 2113 409 
Q 2538 409 2786 701 
Q 3034 994 3034 1497 
Q 3034 2003 2786 2293 
Q 2538 2584 2113 2584 
z
M 3366 4563 
L 3366 3988 
Q 3128 4100 2886 4159 
Q 2644 4219 2406 4219 
Q 1781 4219 1451 3797 
Q 1122 3375 1075 2522 
Q 1259 2794 1537 2939 
Q 1816 3084 2150 3084 
Q 2853 3084 3261 2657 
Q 3669 2231 3669 1497 
Q 3669 778 3244 343 
Q 2819 -91 2113 -91 
Q 1303 -91 875 529 
Q 447 1150 447 2328 
Q 447 3434 972 4092 
Q 1497 4750 2381 4750 
Q 2619 4750 2861 4703 
Q 3103 4656 3366 4563 
z
" transform="scale(0.015625)"/>
       </defs>
       <use xlink:href="#DejaVuSans-31"/>
       <use xlink:href="#DejaVuSans-36" transform="translate(63.623047 0)"/>
      </g>
     </g>
    </g>
    <g id="xtick_6">
     <g id="line2d_11">
      <path d="M 254.359236 214.344 
L 254.359236 37.824 
" clip-path="url(#pe236f5b875)" style="fill: none; stroke: #b0b0b0; stroke-opacity: 0.2; stroke-width: 0.8; stroke-linecap: square"/>
     </g>
     <g id="line2d_12">
      <g>
       <use xlink:href="#m8277b1fb05" x="254.359236" y="214.344" style="stroke: #000000; stroke-width: 0.8"/>
      </g>
     </g>
     <g id="text_6">
      <!-- 20 -->
      <g transform="translate(247.996736 230.942437) scale(0.1 -0.1)">
       <use xlink:href="#DejaVuSans-32"/>
       <use xlink:href="#DejaVuSans-30" transform="translate(63.623047 0)"/>
      </g>
     </g>
    </g>
   </g>
   <g id="matplotlib.axis_2">
    <g id="ytick_1">
     <g id="line2d_13">
      <path d="M 51.84 190.163178 
L 275.288276 190.163178 
" clip-path="url(#pe236f5b875)" style="fill: none; stroke: #b0b0b0; stroke-opacity: 0.2; stroke-width: 0.8; stroke-linecap: square"/>
     </g>
     <g id="line2d_14">
      <defs>
       <path id="mb86e9f2b53" d="M 0 0 
L -3 0 
" style="stroke: #000000; stroke-width: 0.8"/>
      </defs>
      <g>
       <use xlink:href="#mb86e9f2b53" x="51.84" y="190.163178" style="stroke: #000000; stroke-width: 0.8"/>
      </g>
     </g>
     <g id="text_7">
      <!-- 1 -->
      <g transform="translate(36.4775 193.962397) scale(0.1 -0.1)">
       <use xlink:href="#DejaVuSans-31"/>
      </g>
     </g>
    </g>
    <g id="ytick_2">
     <g id="line2d_15">
      <path d="M 51.84 165.982356 
L 275.288276 165.982356 
" clip-path="url(#pe236f5b875)" style="fill: none; stroke: #b0b0b0; stroke-opacity: 0.2; stroke-width: 0.8; stroke-linecap: square"/>
     </g>
     <g id="line2d_16">
      <g>
       <use xlink:href="#mb86e9f2b53" x="51.84" y="165.982356" style="stroke: #000000; stroke-width: 0.8"/>
      </g>
     </g>
     <g id="text_8">
      <!-- 2 -->
      <g transform="translate(36.4775 169.781575) scale(0.1 -0.1)">
       <use xlink:href="#DejaVuSans-32"/>
      </g>
     </g>
    </g>
    <g id="ytick_3">
     <g id="line2d_17">
      <path d="M 51.84 141.801534 
L 275.288276 141.801534 
" clip-path="url(#pe236f5b875)" style="fill: none; stroke: #b0b0b0; stroke-opacity: 0.2; stroke-width: 0.8; stroke-linecap: square"/>
     </g>
     <g id="line2d_18">
      <g>
       <use xlink:href="#mb86e9f2b53" x="51.84" y="141.801534" style="stroke: #000000; stroke-width: 0.8"/>
      </g>
     </g>
     <g id="text_9">
      <!-- 3 -->
      <g transform="translate(36.4775 145.600753) scale(0.1 -0.1)">
       <defs>
        <path id="DejaVuSans-33" d="M 2597 2516 
Q 3050 2419 3304 2112 
Q 3559 1806 3559 1356 
Q 3559 666 3084 287 
Q 2609 -91 1734 -91 
Q 1441 -91 1130 -33 
Q 819 25 488 141 
L 488 750 
Q 750 597 1062 519 
Q 1375 441 1716 441 
Q 2309 441 2620 675 
Q 2931 909 2931 1356 
Q 2931 1769 2642 2001 
Q 2353 2234 1838 2234 
L 1294 2234 
L 1294 2753 
L 1863 2753 
Q 2328 2753 2575 2939 
Q 2822 3125 2822 3475 
Q 2822 3834 2567 4026 
Q 2313 4219 1838 4219 
Q 1578 4219 1281 4162 
Q 984 4106 628 3988 
L 628 4550 
Q 988 4650 1302 4700 
Q 1616 4750 1894 4750 
Q 2613 4750 3031 4423 
Q 3450 4097 3450 3541 
Q 3450 3153 3228 2886 
Q 3006 2619 2597 2516 
z
" transform="scale(0.015625)"/>
       </defs>
       <use xlink:href="#DejaVuSans-33"/>
      </g>
     </g>
    </g>
    <g id="ytick_4">
     <g id="line2d_19">
      <path d="M 51.84 117.620712 
L 275.288276 117.620712 
" clip-path="url(#pe236f5b875)" style="fill: none; stroke: #b0b0b0; stroke-opacity: 0.2; stroke-width: 0.8; stroke-linecap: square"/>
     </g>
     <g id="line2d_20">
      <g>
       <use xlink:href="#mb86e9f2b53" x="51.84" y="117.620712" style="stroke: #000000; stroke-width: 0.8"/>
      </g>
     </g>
     <g id="text_10">
      <!-- 4 -->
      <g transform="translate(36.4775 121.419931) scale(0.1 -0.1)">
       <use xlink:href="#DejaVuSans-34"/>
      </g>
     </g>
    </g>
    <g id="ytick_5">
     <g id="line2d_21">
      <path d="M 51.84 93.43989 
L 275.288276 93.43989 
" clip-path="url(#pe236f5b875)" style="fill: none; stroke: #b0b0b0; stroke-opacity: 0.2; stroke-width: 0.8; stroke-linecap: square"/>
     </g>
     <g id="line2d_22">
      <g>
       <use xlink:href="#mb86e9f2b53" x="51.84" y="93.43989" style="stroke: #000000; stroke-width: 0.8"/>
      </g>
     </g>
     <g id="text_11">
      <!-- 5 -->
      <g transform="translate(36.4775 97.239109) scale(0.1 -0.1)">
       <defs>
        <path id="DejaVuSans-35" d="M 691 4666 
L 3169 4666 
L 3169 4134 
L 1269 4134 
L 1269 2991 
Q 1406 3038 1543 3061 
Q 1681 3084 1819 3084 
Q 2600 3084 3056 2656 
Q 3513 2228 3513 1497 
Q 3513 744 3044 326 
Q 2575 -91 1722 -91 
Q 1428 -91 1123 -41 
Q 819 9 494 109 
L 494 744 
Q 775 591 1075 516 
Q 1375 441 1709 441 
Q 2250 441 2565 725 
Q 2881 1009 2881 1497 
Q 2881 1984 2565 2268 
Q 2250 2553 1709 2553 
Q 1456 2553 1204 2497 
Q 953 2441 691 2322 
L 691 4666 
z
" transform="scale(0.015625)"/>
       </defs>
       <use xlink:href="#DejaVuSans-35"/>
      </g>
     </g>
    </g>
    <g id="ytick_6">
     <g id="line2d_23">
      <path d="M 51.84 69.259068 
L 275.288276 69.259068 
" clip-path="url(#pe236f5b875)" style="fill: none; stroke: #b0b0b0; stroke-opacity: 0.2; stroke-width: 0.8; stroke-linecap: square"/>
     </g>
     <g id="line2d_24">
      <g>
       <use xlink:href="#mb86e9f2b53" x="51.84" y="69.259068" style="stroke: #000000; stroke-width: 0.8"/>
      </g>
     </g>
     <g id="text_12">
      <!-- 6 -->
      <g transform="translate(36.4775 73.058287) scale(0.1 -0.1)">
       <use xlink:href="#DejaVuSans-36"/>
      </g>
     </g>
    </g>
    <g id="ytick_7">
     <g id="line2d_25">
      <path d="M 51.84 45.078247 
L 275.288276 45.078247 
" clip-path="url(#pe236f5b875)" style="fill: none; stroke: #b0b0b0; stroke-opacity: 0.2; stroke-width: 0.8; stroke-linecap: square"/>
     </g>
     <g id="line2d_26">
      <g>
       <use xlink:href="#mb86e9f2b53" x="51.84" y="45.078247" style="stroke: #000000; stroke-width: 0.8"/>
      </g>
     </g>
     <g id="text_13">
      <!-- 7 -->
      <g transform="translate(36.4775 48.877465) scale(0.1 -0.1)">
       <defs>
        <path id="DejaVuSans-37" d="M 525 4666 
L 3525 4666 
L 3525 4397 
L 1831 0 
L 1172 0 
L 2766 4134 
L 525 4134 
L 525 4666 
z
" transform="scale(0.015625)"/>
       </defs>
       <use xlink:href="#DejaVuSans-37"/>
      </g>
     </g>
    </g>
   </g>
   <g id="line2d_27">
    <path d="M 61.99674 183.988516 
L 62.76619 184.635171 
L 63.53564 185.782157 
L 65.84399 189.823827 
L 66.61344 190.599318 
L 67.38289 190.769636 
L 68.15234 190.200374 
L 68.92179 188.829092 
L 69.69124 186.697813 
L 71.23014 180.893161 
L 72.76904 174.854853 
L 73.53849 172.302698 
L 75.07739 168.310392 
L 79.694089 158.203641 
L 82.002439 152.960559 
L 82.771889 151.504836 
L 83.541339 150.338679 
L 84.310789 149.574552 
L 85.080239 149.337888 
L 85.849689 149.748935 
L 86.619139 150.892868 
L 87.388589 152.786799 
L 88.158039 155.357431 
L 89.696939 161.789162 
L 91.235839 168.079616 
L 92.005289 170.358438 
L 92.774739 171.649879 
L 93.544189 171.756382 
L 94.313639 170.659521 
L 95.083089 168.57513 
L 96.621989 163.341204 
L 97.391439 161.33083 
L 98.160889 160.318744 
L 98.930339 160.463203 
L 99.699789 161.669416 
L 100.469239 163.653035 
L 102.008139 168.389965 
L 102.777589 170.35885 
L 103.547039 171.637562 
L 104.316489 172.060123 
L 105.085939 171.652732 
L 107.394289 168.852068 
L 108.163739 169.004361 
L 108.933189 170.222009 
L 109.702639 172.390971 
L 112.010989 180.158856 
L 112.780439 181.716804 
L 113.549889 182.514306 
L 114.319339 182.732025 
L 115.858239 182.455489 
L 117.397139 182.09486 
L 118.166589 181.749304 
L 118.936039 181.115335 
L 119.705489 180.12521 
L 121.244389 177.333951 
L 122.783289 174.641022 
L 123.552739 173.816357 
L 124.322189 173.516889 
L 125.091639 173.792496 
L 125.861089 174.61397 
L 126.630539 175.862021 
L 128.169439 178.725964 
L 128.938889 179.767539 
L 129.708339 180.210004 
L 130.477789 179.92869 
L 131.247239 178.941035 
L 132.016689 177.387339 
L 135.094488 169.667046 
L 135.863938 168.168462 
L 136.633388 167.01042 
L 137.402838 166.2172 
L 138.172288 165.788519 
L 138.941738 165.696501 
L 139.711188 165.875447 
L 141.250088 166.508113 
L 142.019538 166.543029 
L 142.788988 166.061719 
L 143.558438 164.872563 
L 144.327888 162.921171 
L 145.866788 157.437396 
L 146.636238 154.615076 
L 147.405688 152.249892 
L 148.175138 150.580548 
L 148.944588 149.650549 
L 149.714038 149.326521 
L 150.483488 149.377047 
L 152.791838 149.884785 
L 155.869638 150.281039 
L 156.639088 150.121371 
L 157.408538 149.585518 
L 158.177988 148.60143 
L 160.486338 144.788816 
L 161.255788 144.490853 
L 162.025238 145.229939 
L 162.794688 147.015061 
L 164.333588 152.439728 
L 165.103038 155.095879 
L 165.872488 157.129184 
L 166.641938 158.318634 
L 167.411388 158.644859 
L 168.180838 158.233052 
L 168.950288 157.270483 
L 169.719738 155.937527 
L 171.258638 152.664502 
L 174.336438 145.564859 
L 175.105888 144.035985 
L 175.875338 142.766704 
L 176.644788 141.849854 
L 177.414238 141.375522 
L 178.183688 141.415475 
L 178.953138 141.995832 
L 179.722588 143.062145 
L 182.030938 147.100261 
L 182.800388 147.754192 
L 183.569838 147.705468 
L 184.339288 146.974994 
L 185.878188 144.363817 
L 186.647638 143.091801 
L 187.417087 142.156643 
L 188.186537 141.63045 
L 188.955987 141.455738 
L 190.494887 141.627717 
L 192.803237 141.881625 
L 195.111587 142.043371 
L 195.881037 141.920338 
L 196.650487 141.53553 
L 197.419937 140.804983 
L 198.189387 139.715541 
L 201.267187 134.198307 
L 202.036637 133.429585 
L 202.806087 133.200011 
L 203.575537 133.560177 
L 204.344987 134.474646 
L 206.653337 138.633391 
L 207.422787 139.501334 
L 208.192237 139.688168 
L 208.961687 139.166278 
L 209.731137 138.109753 
L 211.270037 135.660208 
L 212.039487 134.80084 
L 214.347837 133.087329 
L 215.117287 131.831188 
L 215.886737 129.865601 
L 217.425637 124.259286 
L 218.964537 118.400512 
L 220.503437 113.759117 
L 222.042337 109.350675 
L 223.581237 103.779174 
L 225.889587 94.862393 
L 227.428487 90.288051 
L 228.967387 85.779283 
L 230.506287 80.032181 
L 232.045187 74.42227 
L 232.814637 72.649829 
L 233.584087 71.928958 
L 234.353537 72.238016 
L 235.122987 73.317595 
L 236.661887 76.169012 
L 237.431337 77.216795 
L 238.200787 77.761409 
L 238.970237 77.816887 
L 239.739687 77.519886 
L 241.278586 76.762646 
L 242.048036 76.816714 
L 242.817486 77.472757 
L 243.586936 78.870022 
L 244.356386 81.010012 
L 245.895286 86.772295 
L 247.434186 92.57095 
L 248.973086 97.156515 
L 250.511986 101.561797 
L 252.050886 107.127668 
L 253.589786 113.121327 
L 254.359236 115.574631 
L 255.128686 117.318392 
L 255.898136 118.222266 
L 256.667586 118.279192 
L 257.437036 117.591227 
L 258.206486 116.352146 
L 259.745386 113.382544 
L 260.514836 112.38287 
L 261.284286 112.236354 
L 262.053736 113.273994 
L 262.823186 115.601032 
L 264.362086 122.187854 
L 265.131536 124.302185 
L 265.131536 124.302185 
" clip-path="url(#pe236f5b875)" style="fill: none; stroke: #1f77b4; stroke-width: 2.5; stroke-linecap: square"/>
   </g>
   <g id="line2d_28">
    <path d="M 61.99674 190.163178 
L 92.005289 190.103624 
L 94.313639 189.866832 
L 97.391439 189.29001 
L 100.469239 188.440876 
L 103.547039 187.34789 
L 106.624839 186.039512 
L 110.472089 184.1445 
L 114.319339 182.01299 
L 119.705489 178.737396 
L 128.169439 173.240482 
L 135.863938 168.308341 
L 141.250088 165.118395 
L 147.405688 161.408106 
L 153.561288 157.464778 
L 159.716888 153.284588 
L 165.872488 148.863713 
L 172.028088 144.198327 
L 177.414238 139.891249 
L 182.030938 135.915526 
L 187.417087 130.968616 
L 193.572687 124.994532 
L 201.267187 117.200364 
L 208.192237 109.908924 
L 213.578387 103.930389 
L 218.195087 98.512938 
L 222.811787 92.758908 
L 225.889587 88.592898 
L 230.506287 81.875141 
L 240.509137 66.798248 
L 242.817486 62.639378 
L 248.203636 52.508293 
L 249.742536 50.018135 
L 251.281436 47.917235 
L 252.820336 46.319873 
L 253.589786 45.745731 
L 254.359236 45.340327 
L 255.128686 45.117946 
L 257.437036 45.078247 
L 265.131536 45.078247 
L 265.131536 45.078247 
" clip-path="url(#pe236f5b875)" style="fill: none; stroke-dasharray: 5.55,2.4; stroke-dashoffset: 0; stroke: #ff7f0e; stroke-width: 1.5"/>
   </g>
   <g id="patch_3">
    <path d="M 51.84 214.344 
L 51.84 37.824 
" style="fill: none; stroke: #000000; stroke-width: 1.2; stroke-linejoin: miter; stroke-linecap: square"/>
   </g>
   <g id="patch_4">
    <path d="M 275.288276 214.344 
L 275.288276 37.824 
" style="fill: none; stroke: #000000; stroke-width: 1.2; stroke-linejoin: miter; stroke-linecap: square"/>
   </g>
   <g id="patch_5">
    <path d="M 51.84 214.344 
L 275.288276 214.344 
" style="fill: none; stroke: #000000; stroke-width: 1.2; stroke-linejoin: miter; stroke-linecap: square"/>
   </g>
   <g id="patch_6">
    <path d="M 51.84 37.824 
L 275.288276 37.824 
" style="fill: none; stroke: #000000; stroke-width: 1.2; stroke-linejoin: miter; stroke-linecap: square"/>
   </g>
   <g id="text_14">
    <!-- S → N → F, Corr=0.89 -->
    <g transform="translate(99.242263 31.824) scale(0.12 -0.12)">
     <defs>
      <path id="DejaVuSans-53" d="M 3425 4513 
L 3425 3897 
Q 3066 4069 2747 4153 
Q 2428 4238 2131 4238 
Q 1616 4238 1336 4038 
Q 1056 3838 1056 3469 
Q 1056 3159 1242 3001 
Q 1428 2844 1947 2747 
L 2328 2669 
Q 3034 2534 3370 2195 
Q 3706 1856 3706 1288 
Q 3706 609 3251 259 
Q 2797 -91 1919 -91 
Q 1588 -91 1214 -16 
Q 841 59 441 206 
L 441 856 
Q 825 641 1194 531 
Q 1563 422 1919 422 
Q 2459 422 2753 634 
Q 3047 847 3047 1241 
Q 3047 1584 2836 1778 
Q 2625 1972 2144 2069 
L 1759 2144 
Q 1053 2284 737 2584 
Q 422 2884 422 3419 
Q 422 4038 858 4394 
Q 1294 4750 2059 4750 
Q 2388 4750 2728 4690 
Q 3069 4631 3425 4513 
z
" transform="scale(0.015625)"/>
      <path id="DejaVuSans-20" transform="scale(0.015625)"/>
      <path id="DejaVuSans-2192" d="M 5050 2147 
L 5050 1866 
L 3822 638 
L 3447 1013 
L 4175 1741 
L 366 1741 
L 366 2272 
L 4175 2272 
L 3447 3000 
L 3822 3375 
L 5050 2147 
z
" transform="scale(0.015625)"/>
      <path id="DejaVuSans-4e" d="M 628 4666 
L 1478 4666 
L 3547 763 
L 3547 4666 
L 4159 4666 
L 4159 0 
L 3309 0 
L 1241 3903 
L 1241 0 
L 628 0 
L 628 4666 
z
" transform="scale(0.015625)"/>
      <path id="DejaVuSans-46" d="M 628 4666 
L 3309 4666 
L 3309 4134 
L 1259 4134 
L 1259 2759 
L 3109 2759 
L 3109 2228 
L 1259 2228 
L 1259 0 
L 628 0 
L 628 4666 
z
" transform="scale(0.015625)"/>
      <path id="DejaVuSans-2c" d="M 750 794 
L 1409 794 
L 1409 256 
L 897 -744 
L 494 -744 
L 750 256 
L 750 794 
z
" transform="scale(0.015625)"/>
      <path id="DejaVuSans-43" d="M 4122 4306 
L 4122 3641 
Q 3803 3938 3442 4084 
Q 3081 4231 2675 4231 
Q 1875 4231 1450 3742 
Q 1025 3253 1025 2328 
Q 1025 1406 1450 917 
Q 1875 428 2675 428 
Q 3081 428 3442 575 
Q 3803 722 4122 1019 
L 4122 359 
Q 3791 134 3420 21 
Q 3050 -91 2638 -91 
Q 1578 -91 968 557 
Q 359 1206 359 2328 
Q 359 3453 968 4101 
Q 1578 4750 2638 4750 
Q 3056 4750 3426 4639 
Q 3797 4528 4122 4306 
z
" transform="scale(0.015625)"/>
      <path id="DejaVuSans-6f" d="M 1959 3097 
Q 1497 3097 1228 2736 
Q 959 2375 959 1747 
Q 959 1119 1226 758 
Q 1494 397 1959 397 
Q 2419 397 2687 759 
Q 2956 1122 2956 1747 
Q 2956 2369 2687 2733 
Q 2419 3097 1959 3097 
z
M 1959 3584 
Q 2709 3584 3137 3096 
Q 3566 2609 3566 1747 
Q 3566 888 3137 398 
Q 2709 -91 1959 -91 
Q 1206 -91 779 398 
Q 353 888 353 1747 
Q 353 2609 779 3096 
Q 1206 3584 1959 3584 
z
" transform="scale(0.015625)"/>
      <path id="DejaVuSans-72" d="M 2631 2963 
Q 2534 3019 2420 3045 
Q 2306 3072 2169 3072 
Q 1681 3072 1420 2755 
Q 1159 2438 1159 1844 
L 1159 0 
L 581 0 
L 581 3500 
L 1159 3500 
L 1159 2956 
Q 1341 3275 1631 3429 
Q 1922 3584 2338 3584 
Q 2397 3584 2469 3576 
Q 2541 3569 2628 3553 
L 2631 2963 
z
" transform="scale(0.015625)"/>
      <path id="DejaVuSans-3d" d="M 678 2906 
L 4684 2906 
L 4684 2381 
L 678 2381 
L 678 2906 
z
M 678 1631 
L 4684 1631 
L 4684 1100 
L 678 1100 
L 678 1631 
z
" transform="scale(0.015625)"/>
      <path id="DejaVuSans-2e" d="M 684 794 
L 1344 794 
L 1344 0 
L 684 0 
L 684 794 
z
" transform="scale(0.015625)"/>
      <path id="DejaVuSans-39" d="M 703 97 
L 703 672 
Q 941 559 1184 500 
Q 1428 441 1663 441 
Q 2288 441 2617 861 
Q 2947 1281 2994 2138 
Q 2813 1869 2534 1725 
Q 2256 1581 1919 1581 
Q 1219 1581 811 2004 
Q 403 2428 403 3163 
Q 403 3881 828 4315 
Q 1253 4750 1959 4750 
Q 2769 4750 3195 4129 
Q 3622 3509 3622 2328 
Q 3622 1225 3098 567 
Q 2575 -91 1691 -91 
Q 1453 -91 1209 -44 
Q 966 3 703 97 
z
M 1959 2075 
Q 2384 2075 2632 2365 
Q 2881 2656 2881 3163 
Q 2881 3666 2632 3958 
Q 2384 4250 1959 4250 
Q 1534 4250 1286 3958 
Q 1038 3666 1038 3163 
Q 1038 2656 1286 2365 
Q 1534 2075 1959 2075 
z
" transform="scale(0.015625)"/>
     </defs>
     <use xlink:href="#DejaVuSans-53"/>
     <use xlink:href="#DejaVuSans-20" transform="translate(63.476562 0)"/>
     <use xlink:href="#DejaVuSans-2192" transform="translate(95.263672 0)"/>
     <use xlink:href="#DejaVuSans-20" transform="translate(179.052734 0)"/>
     <use xlink:href="#DejaVuSans-4e" transform="translate(210.839844 0)"/>
     <use xlink:href="#DejaVuSans-20" transform="translate(285.644531 0)"/>
     <use xlink:href="#DejaVuSans-2192" transform="translate(317.431641 0)"/>
     <use xlink:href="#DejaVuSans-20" transform="translate(401.220703 0)"/>
     <use xlink:href="#DejaVuSans-46" transform="translate(433.007812 0)"/>
     <use xlink:href="#DejaVuSans-2c" transform="translate(490.527344 0)"/>
     <use xlink:href="#DejaVuSans-20" transform="translate(522.314453 0)"/>
     <use xlink:href="#DejaVuSans-43" transform="translate(554.101562 0)"/>
     <use xlink:href="#DejaVuSans-6f" transform="translate(623.925781 0)"/>
     <use xlink:href="#DejaVuSans-72" transform="translate(685.107422 0)"/>
     <use xlink:href="#DejaVuSans-72" transform="translate(724.470703 0)"/>
     <use xlink:href="#DejaVuSans-3d" transform="translate(765.583984 0)"/>
     <use xlink:href="#DejaVuSans-30" transform="translate(849.373047 0)"/>
     <use xlink:href="#DejaVuSans-2e" transform="translate(912.996094 0)"/>
     <use xlink:href="#DejaVuSans-38" transform="translate(944.783203 0)"/>
     <use xlink:href="#DejaVuSans-39" transform="translate(1008.40625 0)"/>
    </g>
   </g>
  </g>
  <g id="axes_2">
   <g id="patch_7">
    <path d="M 346.791724 214.344 
L 570.24 214.344 
L 570.24 37.824 
L 346.791724 37.824 
z
" style="fill: #ffffff"/>
   </g>
   <g id="matplotlib.axis_3">
    <g id="xtick_7">
     <g id="line2d_29">
      <path d="M 356.948464 214.344 
L 356.948464 37.824 
" clip-path="url(#p73e61bff98)" style="fill: none; stroke: #b0b0b0; stroke-opacity: 0.2; stroke-width: 0.8; stroke-linecap: square"/>
     </g>
     <g id="line2d_30">
      <g>
       <use xlink:href="#m8277b1fb05" x="356.948464" y="214.344" style="stroke: #000000; stroke-width: 0.8"/>
      </g>
     </g>
     <g id="text_15">
      <!-- 0 -->
      <g transform="translate(353.767214 230.942437) scale(0.1 -0.1)">
       <use xlink:href="#DejaVuSans-30"/>
      </g>
     </g>
    </g>
    <g id="xtick_8">
     <g id="line2d_31">
      <path d="M 392.838004 214.344 
L 392.838004 37.824 
" clip-path="url(#p73e61bff98)" style="fill: none; stroke: #b0b0b0; stroke-opacity: 0.2; stroke-width: 0.8; stroke-linecap: square"/>
     </g>
     <g id="line2d_32">
      <g>
       <use xlink:href="#m8277b1fb05" x="392.838004" y="214.344" style="stroke: #000000; stroke-width: 0.8"/>
      </g>
     </g>
     <g id="text_16">
      <!-- 4 -->
      <g transform="translate(389.656754 230.942437) scale(0.1 -0.1)">
       <use xlink:href="#DejaVuSans-34"/>
      </g>
     </g>
    </g>
    <g id="xtick_9">
     <g id="line2d_33">
      <path d="M 428.727544 214.344 
L 428.727544 37.824 
" clip-path="url(#p73e61bff98)" style="fill: none; stroke: #b0b0b0; stroke-opacity: 0.2; stroke-width: 0.8; stroke-linecap: square"/>
     </g>
     <g id="line2d_34">
      <g>
       <use xlink:href="#m8277b1fb05" x="428.727544" y="214.344" style="stroke: #000000; stroke-width: 0.8"/>
      </g>
     </g>
     <g id="text_17">
      <!-- 8 -->
      <g transform="translate(425.546294 230.942437) scale(0.1 -0.1)">
       <use xlink:href="#DejaVuSans-38"/>
      </g>
     </g>
    </g>
    <g id="xtick_10">
     <g id="line2d_35">
      <path d="M 464.617084 214.344 
L 464.617084 37.824 
" clip-path="url(#p73e61bff98)" style="fill: none; stroke: #b0b0b0; stroke-opacity: 0.2; stroke-width: 0.8; stroke-linecap: square"/>
     </g>
     <g id="line2d_36">
      <g>
       <use xlink:href="#m8277b1fb05" x="464.617084" y="214.344" style="stroke: #000000; stroke-width: 0.8"/>
      </g>
     </g>
     <g id="text_18">
      <!-- 12 -->
      <g transform="translate(458.254584 230.942437) scale(0.1 -0.1)">
       <use xlink:href="#DejaVuSans-31"/>
       <use xlink:href="#DejaVuSans-32" transform="translate(63.623047 0)"/>
      </g>
     </g>
    </g>
    <g id="xtick_11">
     <g id="line2d_37">
      <path d="M 500.506624 214.344 
L 500.506624 37.824 
" clip-path="url(#p73e61bff98)" style="fill: none; stroke: #b0b0b0; stroke-opacity: 0.2; stroke-width: 0.8; stroke-linecap: square"/>
     </g>
     <g id="line2d_38">
      <g>
       <use xlink:href="#m8277b1fb05" x="500.506624" y="214.344" style="stroke: #000000; stroke-width: 0.8"/>
      </g>
     </g>
     <g id="text_19">
      <!-- 16 -->
      <g transform="translate(494.144124 230.942437) scale(0.1 -0.1)">
       <use xlink:href="#DejaVuSans-31"/>
       <use xlink:href="#DejaVuSans-36" transform="translate(63.623047 0)"/>
      </g>
     </g>
    </g>
    <g id="xtick_12">
     <g id="line2d_39">
      <path d="M 536.396164 214.344 
L 536.396164 37.824 
" clip-path="url(#p73e61bff98)" style="fill: none; stroke: #b0b0b0; stroke-opacity: 0.2; stroke-width: 0.8; stroke-linecap: square"/>
     </g>
     <g id="line2d_40">
      <g>
       <use xlink:href="#m8277b1fb05" x="536.396164" y="214.344" style="stroke: #000000; stroke-width: 0.8"/>
      </g>
     </g>
     <g id="text_20">
      <!-- 20 -->
      <g transform="translate(530.033664 230.942437) scale(0.1 -0.1)">
       <use xlink:href="#DejaVuSans-32"/>
       <use xlink:href="#DejaVuSans-30" transform="translate(63.623047 0)"/>
      </g>
     </g>
    </g>
   </g>
   <g id="matplotlib.axis_4">
    <g id="ytick_8">
     <g id="line2d_41">
      <path d="M 346.791724 190.163178 
L 570.24 190.163178 
" clip-path="url(#p73e61bff98)" style="fill: none; stroke: #b0b0b0; stroke-opacity: 0.2; stroke-width: 0.8; stroke-linecap: square"/>
     </g>
     <g id="line2d_42">
      <g>
       <use xlink:href="#mb86e9f2b53" x="346.791724" y="190.163178" style="stroke: #000000; stroke-width: 0.8"/>
      </g>
     </g>
     <g id="text_21">
      <!-- 1 -->
      <g transform="translate(331.429224 193.962397) scale(0.1 -0.1)">
       <use xlink:href="#DejaVuSans-31"/>
      </g>
     </g>
    </g>
    <g id="ytick_9">
     <g id="line2d_43">
      <path d="M 346.791724 165.982356 
L 570.24 165.982356 
" clip-path="url(#p73e61bff98)" style="fill: none; stroke: #b0b0b0; stroke-opacity: 0.2; stroke-width: 0.8; stroke-linecap: square"/>
     </g>
     <g id="line2d_44">
      <g>
       <use xlink:href="#mb86e9f2b53" x="346.791724" y="165.982356" style="stroke: #000000; stroke-width: 0.8"/>
      </g>
     </g>
     <g id="text_22">
      <!-- 2 -->
      <g transform="translate(331.429224 169.781575) scale(0.1 -0.1)">
       <use xlink:href="#DejaVuSans-32"/>
      </g>
     </g>
    </g>
    <g id="ytick_10">
     <g id="line2d_45">
      <path d="M 346.791724 141.801534 
L 570.24 141.801534 
" clip-path="url(#p73e61bff98)" style="fill: none; stroke: #b0b0b0; stroke-opacity: 0.2; stroke-width: 0.8; stroke-linecap: square"/>
     </g>
     <g id="line2d_46">
      <g>
       <use xlink:href="#mb86e9f2b53" x="346.791724" y="141.801534" style="stroke: #000000; stroke-width: 0.8"/>
      </g>
     </g>
     <g id="text_23">
      <!-- 3 -->
      <g transform="translate(331.429224 145.600753) scale(0.1 -0.1)">
       <use xlink:href="#DejaVuSans-33"/>
      </g>
     </g>
    </g>
    <g id="ytick_11">
     <g id="line2d_47">
      <path d="M 346.791724 117.620712 
L 570.24 117.620712 
" clip-path="url(#p73e61bff98)" style="fill: none; stroke: #b0b0b0; stroke-opacity: 0.2; stroke-width: 0.8; stroke-linecap: square"/>
     </g>
     <g id="line2d_48">
      <g>
       <use xlink:href="#mb86e9f2b53" x="346.791724" y="117.620712" style="stroke: #000000; stroke-width: 0.8"/>
      </g>
     </g>
     <g id="text_24">
      <!-- 4 -->
      <g transform="translate(331.429224 121.419931) scale(0.1 -0.1)">
       <use xlink:href="#DejaVuSans-34"/>
      </g>
     </g>
    </g>
    <g id="ytick_12">
     <g id="line2d_49">
      <path d="M 346.791724 93.43989 
L 570.24 93.43989 
" clip-path="url(#p73e61bff98)" style="fill: none; stroke: #b0b0b0; stroke-opacity: 0.2; stroke-width: 0.8; stroke-linecap: square"/>
     </g>
     <g id="line2d_50">
      <g>
       <use xlink:href="#mb86e9f2b53" x="346.791724" y="93.43989" style="stroke: #000000; stroke-width: 0.8"/>
      </g>
     </g>
     <g id="text_25">
      <!-- 5 -->
      <g transform="translate(331.429224 97.239109) scale(0.1 -0.1)">
       <use xlink:href="#DejaVuSans-35"/>
      </g>
     </g>
    </g>
    <g id="ytick_13">
     <g id="line2d_51">
      <path d="M 346.791724 69.259068 
L 570.24 69.259068 
" clip-path="url(#p73e61bff98)" style="fill: none; stroke: #b0b0b0; stroke-opacity: 0.2; stroke-width: 0.8; stroke-linecap: square"/>
     </g>
     <g id="line2d_52">
      <g>
       <use xlink:href="#mb86e9f2b53" x="346.791724" y="69.259068" style="stroke: #000000; stroke-width: 0.8"/>
      </g>
     </g>
     <g id="text_26">
      <!-- 6 -->
      <g transform="translate(331.429224 73.058287) scale(0.1 -0.1)">
       <use xlink:href="#DejaVuSans-36"/>
      </g>
     </g>
    </g>
    <g id="ytick_14">
     <g id="line2d_53">
      <path d="M 346.791724 45.078247 
L 570.24 45.078247 
" clip-path="url(#p73e61bff98)" style="fill: none; stroke: #b0b0b0; stroke-opacity: 0.2; stroke-width: 0.8; stroke-linecap: square"/>
     </g>
     <g id="line2d_54">
      <g>
       <use xlink:href="#mb86e9f2b53" x="346.791724" y="45.078247" style="stroke: #000000; stroke-width: 0.8"/>
      </g>
     </g>
     <g id="text_27">
      <!-- 7 -->
      <g transform="translate(331.429224 48.877465) scale(0.1 -0.1)">
       <use xlink:href="#DejaVuSans-37"/>
      </g>
     </g>
    </g>
   </g>
   <g id="line2d_55">
    <path d="M 356.948464 77.706004 
L 357.666255 78.180503 
L 358.384046 79.301055 
L 359.101836 81.275447 
L 359.819627 84.152577 
L 361.973 94.635984 
L 362.69079 96.836394 
L 363.408581 97.624876 
L 364.126372 96.937014 
L 364.844163 95.057076 
L 366.279744 90.137129 
L 366.997535 88.423402 
L 367.715326 87.797376 
L 368.433117 88.325419 
L 369.150908 89.801101 
L 372.022071 98.107867 
L 372.739862 99.518988 
L 373.457652 100.496539 
L 374.175443 101.092789 
L 374.893234 101.408621 
L 377.046606 101.810531 
L 377.764397 101.910846 
L 378.482188 101.862647 
L 379.199979 101.502307 
L 379.91777 100.710157 
L 381.353351 98.078192 
L 382.071142 96.810591 
L 382.788933 96.133758 
L 383.506724 96.400134 
L 384.224514 97.742698 
L 384.942305 100.011795 
L 387.095678 108.017979 
L 387.813468 109.615989 
L 388.531259 110.311779 
L 389.24905 110.156915 
L 389.966841 109.31869 
L 390.684632 108.017891 
L 392.838004 103.552472 
L 393.555795 102.464421 
L 394.273586 101.734958 
L 394.991376 101.354544 
L 395.709167 101.253559 
L 397.144749 101.471826 
L 398.58033 101.637269 
L 400.015912 101.437634 
L 401.451494 101.191301 
L 402.169284 101.316075 
L 402.887075 101.765175 
L 403.604866 102.599671 
L 404.322657 103.787444 
L 406.476029 107.851936 
L 407.19382 108.758503 
L 407.911611 109.323228 
L 410.064983 110.436515 
L 410.782774 111.248177 
L 411.500565 112.458203 
L 412.936146 115.878007 
L 415.089519 121.598484 
L 415.80731 123.131027 
L 416.5251 124.320813 
L 417.242891 125.139546 
L 417.960682 125.614978 
L 418.678473 125.824154 
L 420.114054 125.847182 
L 422.267427 125.705056 
L 424.420799 125.235451 
L 425.13859 125.296971 
L 425.856381 125.782017 
L 426.574171 126.883671 
L 427.291962 128.704116 
L 428.009753 131.209968 
L 431.598707 145.863837 
L 432.316498 147.384885 
L 433.034289 148.063475 
L 433.752079 147.924222 
L 434.46987 147.113015 
L 436.623243 143.36098 
L 437.341033 142.508739 
L 438.058824 141.985185 
L 439.494406 141.262271 
L 440.212197 140.632904 
L 440.929987 139.651406 
L 442.365569 136.883242 
L 443.08336 135.463493 
L 443.801151 134.301294 
L 444.518941 133.55248 
L 445.236732 133.298994 
L 445.954523 133.554076 
L 446.672314 134.278657 
L 447.390105 135.3972 
L 448.825686 138.409525 
L 451.696849 145.280379 
L 453.132431 149.127288 
L 454.568013 153.112731 
L 455.285803 154.636273 
L 456.003594 155.42063 
L 456.721385 155.205595 
L 457.439176 153.902286 
L 458.156967 151.646338 
L 460.310339 143.115642 
L 461.02813 141.264985 
L 461.745921 140.560135 
L 462.463711 141.208792 
L 463.181502 143.251718 
L 463.899293 146.527568 
L 466.770456 162.572628 
L 467.488247 164.848931 
L 468.206038 166.119953 
L 468.923829 166.703259 
L 469.641619 167.040546 
L 470.35941 167.52972 
L 471.077201 168.396838 
L 472.512783 171.125811 
L 473.230573 172.565869 
L 473.948364 173.722307 
L 474.666155 174.413112 
L 475.383946 174.546271 
L 476.101737 174.115666 
L 476.819527 173.188575 
L 478.255109 170.411403 
L 479.690691 167.668251 
L 480.408481 166.7195 
L 481.126272 166.129524 
L 481.844063 165.842028 
L 483.279645 165.719926 
L 484.715226 165.740423 
L 485.433017 165.905348 
L 486.150808 166.331007 
L 486.868599 167.107701 
L 487.586389 168.238402 
L 489.739762 172.384713 
L 490.457553 173.396702 
L 491.175343 174.030657 
L 491.893134 174.307223 
L 492.610925 174.319913 
L 494.764297 173.937914 
L 496.199879 173.996892 
L 497.635461 174.221479 
L 498.353251 174.224168 
L 499.071042 174.02976 
L 499.788833 173.55001 
L 500.506624 172.722358 
L 501.224415 171.523704 
L 501.942205 169.976089 
L 503.377787 166.145675 
L 504.813369 162.28251 
L 505.531159 160.818172 
L 506.24895 159.923187 
L 506.966741 159.723951 
L 507.684532 160.250178 
L 508.402323 161.426277 
L 509.120113 163.092888 
L 511.991277 170.736115 
L 512.709067 172.118275 
L 513.426858 173.128356 
L 514.144649 173.772411 
L 514.86244 174.105535 
L 515.580231 174.217826 
L 517.733603 174.113516 
L 519.886975 173.908384 
L 521.322557 173.752167 
L 522.040348 173.887373 
L 522.758139 174.325066 
L 523.475929 175.137713 
L 524.19372 176.305072 
L 526.347093 180.374075 
L 527.064883 181.298644 
L 527.782674 181.877784 
L 529.936047 182.944775 
L 530.653837 183.718647 
L 531.371628 184.906399 
L 532.089419 186.500602 
L 534.960582 194.337739 
L 535.678373 195.650669 
L 536.396164 196.306648 
L 537.113955 196.228382 
L 537.831745 195.470847 
L 538.549536 194.2179 
L 539.985118 191.32964 
L 540.702909 190.242967 
L 541.420699 189.660334 
L 542.13849 189.672805 
L 542.856281 190.28001 
L 543.574072 191.388584 
L 545.727444 195.51091 
L 546.445235 196.215513 
L 547.163026 196.229294 
L 547.880817 195.524083 
L 548.598607 194.210631 
L 550.034189 190.575403 
L 552.187561 184.975456 
L 555.776515 176.537134 
L 556.494306 175.190561 
L 557.212097 174.152577 
L 557.929888 173.485872 
L 558.647679 173.180785 
L 560.08326 173.17226 
L 560.08326 173.17226 
" clip-path="url(#p73e61bff98)" style="fill: none; stroke: #1f77b4; stroke-width: 2.5; stroke-linecap: square"/>
   </g>
   <g id="line2d_56">
    <path d="M 356.948464 45.078247 
L 366.279744 45.102871 
L 366.997535 45.265206 
L 367.715326 45.571007 
L 369.150908 46.574192 
L 370.586489 48.034794 
L 372.022071 49.875179 
L 374.175443 53.178026 
L 377.046606 58.186488 
L 381.353351 65.733354 
L 383.506724 68.954473 
L 391.402422 79.202754 
L 400.733703 90.986188 
L 414.371728 107.778498 
L 420.831845 115.38811 
L 431.598707 127.525724 
L 437.341033 133.716055 
L 441.647778 138.011567 
L 445.236732 141.266552 
L 450.261268 145.389832 
L 455.285803 149.249927 
L 461.02813 153.375427 
L 466.770456 157.231313 
L 473.230573 161.29302 
L 480.408481 165.524925 
L 486.150808 168.916657 
L 493.328716 173.464943 
L 503.377787 179.819563 
L 508.402323 182.736367 
L 512.709067 184.980491 
L 516.298021 186.614725 
L 519.886975 187.989796 
L 522.758139 188.875072 
L 525.629302 189.546169 
L 528.500465 189.981614 
L 531.371628 190.159934 
L 556.494306 190.163178 
L 560.08326 190.163178 
L 560.08326 190.163178 
" clip-path="url(#p73e61bff98)" style="fill: none; stroke-dasharray: 5.55,2.4; stroke-dashoffset: 0; stroke: #ff7f0e; stroke-width: 1.5"/>
   </g>
   <g id="patch_8">
    <path d="M 346.791724 214.344 
L 346.791724 37.824 
" style="fill: none; stroke: #000000; stroke-width: 1.2; stroke-linejoin: miter; stroke-linecap: square"/>
   </g>
   <g id="patch_9">
    <path d="M 570.24 214.344 
L 570.24 37.824 
" style="fill: none; stroke: #000000; stroke-width: 1.2; stroke-linejoin: miter; stroke-linecap: square"/>
   </g>
   <g id="patch_10">
    <path d="M 346.791724 214.344 
L 570.24 214.344 
" style="fill: none; stroke: #000000; stroke-width: 1.2; stroke-linejoin: miter; stroke-linecap: square"/>
   </g>
   <g id="patch_11">
    <path d="M 346.791724 37.824 
L 570.24 37.824 
" style="fill: none; stroke: #000000; stroke-width: 1.2; stroke-linejoin: miter; stroke-linecap: square"/>
   </g>
   <g id="text_28">
    <!-- F → N → S, Corr=0.97 -->
    <g transform="translate(394.193987 31.824) scale(0.12 -0.12)">
     <use xlink:href="#DejaVuSans-46"/>
     <use xlink:href="#DejaVuSans-20" transform="translate(57.519531 0)"/>
     <use xlink:href="#DejaVuSans-2192" transform="translate(89.306641 0)"/>
     <use xlink:href="#DejaVuSans-20" transform="translate(173.095703 0)"/>
     <use xlink:href="#DejaVuSans-4e" transform="translate(204.882812 0)"/>
     <use xlink:href="#DejaVuSans-20" transform="translate(279.6875 0)"/>
     <use xlink:href="#DejaVuSans-2192" transform="translate(311.474609 0)"/>
     <use xlink:href="#DejaVuSans-20" transform="translate(395.263672 0)"/>
     <use xlink:href="#DejaVuSans-53" transform="translate(427.050781 0)"/>
     <use xlink:href="#DejaVuSans-2c" transform="translate(490.527344 0)"/>
     <use xlink:href="#DejaVuSans-20" transform="translate(522.314453 0)"/>
     <use xlink:href="#DejaVuSans-43" transform="translate(554.101562 0)"/>
     <use xlink:href="#DejaVuSans-6f" transform="translate(623.925781 0)"/>
     <use xlink:href="#DejaVuSans-72" transform="translate(685.107422 0)"/>
     <use xlink:href="#DejaVuSans-72" transform="translate(724.470703 0)"/>
     <use xlink:href="#DejaVuSans-3d" transform="translate(765.583984 0)"/>
     <use xlink:href="#DejaVuSans-30" transform="translate(849.373047 0)"/>
     <use xlink:href="#DejaVuSans-2e" transform="translate(912.996094 0)"/>
     <use xlink:href="#DejaVuSans-39" transform="translate(944.783203 0)"/>
     <use xlink:href="#DejaVuSans-37" transform="translate(1008.40625 0)"/>
    </g>
   </g>
   <g id="legend_1">
    <g id="line2d_57">
     <path d="M 507.202812 46.992906 
L 514.202812 46.992906 
L 521.202812 46.992906 
" style="fill: none; stroke: #1f77b4; stroke-width: 2.5; stroke-linecap: square"/>
    </g>
    <g id="text_29">
     <!-- Generated -->
     <g transform="translate(526.802812 49.442906) scale(0.07 -0.07)">
      <defs>
       <path id="DejaVuSans-47" d="M 3809 666 
L 3809 1919 
L 2778 1919 
L 2778 2438 
L 4434 2438 
L 4434 434 
Q 4069 175 3628 42 
Q 3188 -91 2688 -91 
Q 1594 -91 976 548 
Q 359 1188 359 2328 
Q 359 3472 976 4111 
Q 1594 4750 2688 4750 
Q 3144 4750 3555 4637 
Q 3966 4525 4313 4306 
L 4313 3634 
Q 3963 3931 3569 4081 
Q 3175 4231 2741 4231 
Q 1884 4231 1454 3753 
Q 1025 3275 1025 2328 
Q 1025 1384 1454 906 
Q 1884 428 2741 428 
Q 3075 428 3337 486 
Q 3600 544 3809 666 
z
" transform="scale(0.015625)"/>
       <path id="DejaVuSans-65" d="M 3597 1894 
L 3597 1613 
L 953 1613 
Q 991 1019 1311 708 
Q 1631 397 2203 397 
Q 2534 397 2845 478 
Q 3156 559 3463 722 
L 3463 178 
Q 3153 47 2828 -22 
Q 2503 -91 2169 -91 
Q 1331 -91 842 396 
Q 353 884 353 1716 
Q 353 2575 817 3079 
Q 1281 3584 2069 3584 
Q 2775 3584 3186 3129 
Q 3597 2675 3597 1894 
z
M 3022 2063 
Q 3016 2534 2758 2815 
Q 2500 3097 2075 3097 
Q 1594 3097 1305 2825 
Q 1016 2553 972 2059 
L 3022 2063 
z
" transform="scale(0.015625)"/>
       <path id="DejaVuSans-6e" d="M 3513 2113 
L 3513 0 
L 2938 0 
L 2938 2094 
Q 2938 2591 2744 2837 
Q 2550 3084 2163 3084 
Q 1697 3084 1428 2787 
Q 1159 2491 1159 1978 
L 1159 0 
L 581 0 
L 581 3500 
L 1159 3500 
L 1159 2956 
Q 1366 3272 1645 3428 
Q 1925 3584 2291 3584 
Q 2894 3584 3203 3211 
Q 3513 2838 3513 2113 
z
" transform="scale(0.015625)"/>
       <path id="DejaVuSans-61" d="M 2194 1759 
Q 1497 1759 1228 1600 
Q 959 1441 959 1056 
Q 959 750 1161 570 
Q 1363 391 1709 391 
Q 2188 391 2477 730 
Q 2766 1069 2766 1631 
L 2766 1759 
L 2194 1759 
z
M 3341 1997 
L 3341 0 
L 2766 0 
L 2766 531 
Q 2569 213 2275 61 
Q 1981 -91 1556 -91 
Q 1019 -91 701 211 
Q 384 513 384 1019 
Q 384 1609 779 1909 
Q 1175 2209 1959 2209 
L 2766 2209 
L 2766 2266 
Q 2766 2663 2505 2880 
Q 2244 3097 1772 3097 
Q 1472 3097 1187 3025 
Q 903 2953 641 2809 
L 641 3341 
Q 956 3463 1253 3523 
Q 1550 3584 1831 3584 
Q 2591 3584 2966 3190 
Q 3341 2797 3341 1997 
z
" transform="scale(0.015625)"/>
       <path id="DejaVuSans-74" d="M 1172 4494 
L 1172 3500 
L 2356 3500 
L 2356 3053 
L 1172 3053 
L 1172 1153 
Q 1172 725 1289 603 
Q 1406 481 1766 481 
L 2356 481 
L 2356 0 
L 1766 0 
Q 1100 0 847 248 
Q 594 497 594 1153 
L 594 3053 
L 172 3053 
L 172 3500 
L 594 3500 
L 594 4494 
L 1172 4494 
z
" transform="scale(0.015625)"/>
       <path id="DejaVuSans-64" d="M 2906 2969 
L 2906 4863 
L 3481 4863 
L 3481 0 
L 2906 0 
L 2906 525 
Q 2725 213 2448 61 
Q 2172 -91 1784 -91 
Q 1150 -91 751 415 
Q 353 922 353 1747 
Q 353 2572 751 3078 
Q 1150 3584 1784 3584 
Q 2172 3584 2448 3432 
Q 2725 3281 2906 2969 
z
M 947 1747 
Q 947 1113 1208 752 
Q 1469 391 1925 391 
Q 2381 391 2643 752 
Q 2906 1113 2906 1747 
Q 2906 2381 2643 2742 
Q 2381 3103 1925 3103 
Q 1469 3103 1208 2742 
Q 947 2381 947 1747 
z
" transform="scale(0.015625)"/>
      </defs>
      <use xlink:href="#DejaVuSans-47"/>
      <use xlink:href="#DejaVuSans-65" transform="translate(77.490234 0)"/>
      <use xlink:href="#DejaVuSans-6e" transform="translate(139.013672 0)"/>
      <use xlink:href="#DejaVuSans-65" transform="translate(202.392578 0)"/>
      <use xlink:href="#DejaVuSans-72" transform="translate(263.916016 0)"/>
      <use xlink:href="#DejaVuSans-61" transform="translate(305.029297 0)"/>
      <use xlink:href="#DejaVuSans-74" transform="translate(366.308594 0)"/>
      <use xlink:href="#DejaVuSans-65" transform="translate(405.517578 0)"/>
      <use xlink:href="#DejaVuSans-64" transform="translate(467.041016 0)"/>
     </g>
    </g>
    <g id="line2d_58">
     <path d="M 507.202812 57.267594 
L 514.202812 57.267594 
L 521.202812 57.267594 
" style="fill: none; stroke-dasharray: 5.55,2.4; stroke-dashoffset: 0; stroke: #ff7f0e; stroke-width: 1.5"/>
    </g>
    <g id="text_30">
     <!-- Target -->
     <g transform="translate(526.802812 59.717594) scale(0.07 -0.07)">
      <defs>
       <path id="DejaVuSans-54" d="M -19 4666 
L 3928 4666 
L 3928 4134 
L 2272 4134 
L 2272 0 
L 1638 0 
L 1638 4134 
L -19 4134 
L -19 4666 
z
" transform="scale(0.015625)"/>
       <path id="DejaVuSans-67" d="M 2906 1791 
Q 2906 2416 2648 2759 
Q 2391 3103 1925 3103 
Q 1463 3103 1205 2759 
Q 947 2416 947 1791 
Q 947 1169 1205 825 
Q 1463 481 1925 481 
Q 2391 481 2648 825 
Q 2906 1169 2906 1791 
z
M 3481 434 
Q 3481 -459 3084 -895 
Q 2688 -1331 1869 -1331 
Q 1566 -1331 1297 -1286 
Q 1028 -1241 775 -1147 
L 775 -588 
Q 1028 -725 1275 -790 
Q 1522 -856 1778 -856 
Q 2344 -856 2625 -561 
Q 2906 -266 2906 331 
L 2906 616 
Q 2728 306 2450 153 
Q 2172 0 1784 0 
Q 1141 0 747 490 
Q 353 981 353 1791 
Q 353 2603 747 3093 
Q 1141 3584 1784 3584 
Q 2172 3584 2450 3431 
Q 2728 3278 2906 2969 
L 2906 3500 
L 3481 3500 
L 3481 434 
z
" transform="scale(0.015625)"/>
      </defs>
      <use xlink:href="#DejaVuSans-54"/>
      <use xlink:href="#DejaVuSans-61" transform="translate(44.583984 0)"/>
      <use xlink:href="#DejaVuSans-72" transform="translate(105.863281 0)"/>
      <use xlink:href="#DejaVuSans-67" transform="translate(145.226562 0)"/>
      <use xlink:href="#DejaVuSans-65" transform="translate(208.703125 0)"/>
      <use xlink:href="#DejaVuSans-74" transform="translate(270.226562 0)"/>
     </g>
    </g>
   </g>
  </g>
  <g id="axes_3">
   <g id="matplotlib.axis_5">
    <g id="text_31">
     <!-- Time, seconds -->
     <g transform="translate(271.605859 248.622281) scale(0.11 -0.11)">
      <defs>
       <path id="DejaVuSans-69" d="M 603 3500 
L 1178 3500 
L 1178 0 
L 603 0 
L 603 3500 
z
M 603 4863 
L 1178 4863 
L 1178 4134 
L 603 4134 
L 603 4863 
z
" transform="scale(0.015625)"/>
       <path id="DejaVuSans-6d" d="M 3328 2828 
Q 3544 3216 3844 3400 
Q 4144 3584 4550 3584 
Q 5097 3584 5394 3201 
Q 5691 2819 5691 2113 
L 5691 0 
L 5113 0 
L 5113 2094 
Q 5113 2597 4934 2840 
Q 4756 3084 4391 3084 
Q 3944 3084 3684 2787 
Q 3425 2491 3425 1978 
L 3425 0 
L 2847 0 
L 2847 2094 
Q 2847 2600 2669 2842 
Q 2491 3084 2119 3084 
Q 1678 3084 1418 2786 
Q 1159 2488 1159 1978 
L 1159 0 
L 581 0 
L 581 3500 
L 1159 3500 
L 1159 2956 
Q 1356 3278 1631 3431 
Q 1906 3584 2284 3584 
Q 2666 3584 2933 3390 
Q 3200 3197 3328 2828 
z
" transform="scale(0.015625)"/>
       <path id="DejaVuSans-73" d="M 2834 3397 
L 2834 2853 
Q 2591 2978 2328 3040 
Q 2066 3103 1784 3103 
Q 1356 3103 1142 2972 
Q 928 2841 928 2578 
Q 928 2378 1081 2264 
Q 1234 2150 1697 2047 
L 1894 2003 
Q 2506 1872 2764 1633 
Q 3022 1394 3022 966 
Q 3022 478 2636 193 
Q 2250 -91 1575 -91 
Q 1294 -91 989 -36 
Q 684 19 347 128 
L 347 722 
Q 666 556 975 473 
Q 1284 391 1588 391 
Q 1994 391 2212 530 
Q 2431 669 2431 922 
Q 2431 1156 2273 1281 
Q 2116 1406 1581 1522 
L 1381 1569 
Q 847 1681 609 1914 
Q 372 2147 372 2553 
Q 372 3047 722 3315 
Q 1072 3584 1716 3584 
Q 2034 3584 2315 3537 
Q 2597 3491 2834 3397 
z
" transform="scale(0.015625)"/>
       <path id="DejaVuSans-63" d="M 3122 3366 
L 3122 2828 
Q 2878 2963 2633 3030 
Q 2388 3097 2138 3097 
Q 1578 3097 1268 2742 
Q 959 2388 959 1747 
Q 959 1106 1268 751 
Q 1578 397 2138 397 
Q 2388 397 2633 464 
Q 2878 531 3122 666 
L 3122 134 
Q 2881 22 2623 -34 
Q 2366 -91 2075 -91 
Q 1284 -91 818 406 
Q 353 903 353 1747 
Q 353 2603 823 3093 
Q 1294 3584 2113 3584 
Q 2378 3584 2631 3529 
Q 2884 3475 3122 3366 
z
" transform="scale(0.015625)"/>
      </defs>
      <use xlink:href="#DejaVuSans-54"/>
      <use xlink:href="#DejaVuSans-69" transform="translate(57.958984 0)"/>
      <use xlink:href="#DejaVuSans-6d" transform="translate(85.742188 0)"/>
      <use xlink:href="#DejaVuSans-65" transform="translate(183.154297 0)"/>
      <use xlink:href="#DejaVuSans-2c" transform="translate(244.677734 0)"/>
      <use xlink:href="#DejaVuSans-20" transform="translate(276.464844 0)"/>
      <use xlink:href="#DejaVuSans-73" transform="translate(308.251953 0)"/>
      <use xlink:href="#DejaVuSans-65" transform="translate(360.351562 0)"/>
      <use xlink:href="#DejaVuSans-63" transform="translate(421.875 0)"/>
      <use xlink:href="#DejaVuSans-6f" transform="translate(476.855469 0)"/>
      <use xlink:href="#DejaVuSans-6e" transform="translate(538.037109 0)"/>
      <use xlink:href="#DejaVuSans-64" transform="translate(601.416016 0)"/>
      <use xlink:href="#DejaVuSans-73" transform="translate(664.892578 0)"/>
     </g>
    </g>
   </g>
   <g id="matplotlib.axis_6">
    <g id="text_32">
     <!-- Speaking rate, SPS -->
     <g transform="translate(26.512344 178.227438) rotate(-90) scale(0.11 -0.11)">
      <defs>
       <path id="DejaVuSans-70" d="M 1159 525 
L 1159 -1331 
L 581 -1331 
L 581 3500 
L 1159 3500 
L 1159 2969 
Q 1341 3281 1617 3432 
Q 1894 3584 2278 3584 
Q 2916 3584 3314 3078 
Q 3713 2572 3713 1747 
Q 3713 922 3314 415 
Q 2916 -91 2278 -91 
Q 1894 -91 1617 61 
Q 1341 213 1159 525 
z
M 3116 1747 
Q 3116 2381 2855 2742 
Q 2594 3103 2138 3103 
Q 1681 3103 1420 2742 
Q 1159 2381 1159 1747 
Q 1159 1113 1420 752 
Q 1681 391 2138 391 
Q 2594 391 2855 752 
Q 3116 1113 3116 1747 
z
" transform="scale(0.015625)"/>
       <path id="DejaVuSans-6b" d="M 581 4863 
L 1159 4863 
L 1159 1991 
L 2875 3500 
L 3609 3500 
L 1753 1863 
L 3688 0 
L 2938 0 
L 1159 1709 
L 1159 0 
L 581 0 
L 581 4863 
z
" transform="scale(0.015625)"/>
       <path id="DejaVuSans-50" d="M 1259 4147 
L 1259 2394 
L 2053 2394 
Q 2494 2394 2734 2622 
Q 2975 2850 2975 3272 
Q 2975 3691 2734 3919 
Q 2494 4147 2053 4147 
L 1259 4147 
z
M 628 4666 
L 2053 4666 
Q 2838 4666 3239 4311 
Q 3641 3956 3641 3272 
Q 3641 2581 3239 2228 
Q 2838 1875 2053 1875 
L 1259 1875 
L 1259 0 
L 628 0 
L 628 4666 
z
" transform="scale(0.015625)"/>
      </defs>
      <use xlink:href="#DejaVuSans-53"/>
      <use xlink:href="#DejaVuSans-70" transform="translate(63.476562 0)"/>
      <use xlink:href="#DejaVuSans-65" transform="translate(126.953125 0)"/>
      <use xlink:href="#DejaVuSans-61" transform="translate(188.476562 0)"/>
      <use xlink:href="#DejaVuSans-6b" transform="translate(249.755859 0)"/>
      <use xlink:href="#DejaVuSans-69" transform="translate(307.666016 0)"/>
      <use xlink:href="#DejaVuSans-6e" transform="translate(335.449219 0)"/>
      <use xlink:href="#DejaVuSans-67" transform="translate(398.828125 0)"/>
      <use xlink:href="#DejaVuSans-20" transform="translate(462.304688 0)"/>
      <use xlink:href="#DejaVuSans-72" transform="translate(494.091797 0)"/>
      <use xlink:href="#DejaVuSans-61" transform="translate(535.205078 0)"/>
      <use xlink:href="#DejaVuSans-74" transform="translate(596.484375 0)"/>
      <use xlink:href="#DejaVuSans-65" transform="translate(635.693359 0)"/>
      <use xlink:href="#DejaVuSans-2c" transform="translate(697.216797 0)"/>
      <use xlink:href="#DejaVuSans-20" transform="translate(729.003906 0)"/>
      <use xlink:href="#DejaVuSans-53" transform="translate(760.791016 0)"/>
      <use xlink:href="#DejaVuSans-50" transform="translate(824.267578 0)"/>
      <use xlink:href="#DejaVuSans-53" transform="translate(884.570312 0)"/>
     </g>
    </g>
   </g>
  </g>
 </g>
 <defs>
  <clipPath id="pe236f5b875">
   <rect x="51.84" y="37.824" width="223.448276" height="176.52"/>
  </clipPath>
  <clipPath id="p73e61bff98">
   <rect x="346.791724" y="37.824" width="223.448276" height="176.52"/>
  </clipPath>
 </defs>
</svg>
